# xmcd
#
# Track frame offsets:
#	150
#	16435
#	32491
#	57367
#	72654
#	87721
#	100284
#	123575
#	141563
#	161944
#
# Disc length: 2336 seconds
#
# Revision: 0
# Processed by: cddbd v1.5.2PL0 Copyright (c) Steve Scherf et al.
# Submitted via: dBpowerAMP V4.0
#
DISCID=9a091e0a
DTITLE=Victorious Valley Home - Who Will Go To America?
DYEAR=1900
DGENRE=Gospel
TTITLE0=Who Will Go To America
TTITLE1=Amazing Love
TTITLE2=It's Through The Blood
TTITLE3=The Last Blood
TTITLE4=That's My Child
TTITLE5=You're The Best Thing
TTITLE6=Mephibosheth
TTITLE7=How Could You Have Loved Me So
TTITLE8=The Flower
TTITLE9=God Is My Refuge
EXTD=
EXTT0=
EXTT1=
EXTT2=
EXTT3=
EXTT4=
EXTT5=
EXTT6=
EXTT7=
EXTT8=
EXTT9=
PLAYORDER=
